<?xml version="1.0" encoding="utf-8"?>
<!-- Generator: Adobe Illustrator 28.0.0, SVG Export Plug-In . SVG Version: 6.00 Build 0)  -->
<svg version="1.1" id="Layer_1" xmlns="http://www.w3.org/2000/svg" xmlns:xlink="http://www.w3.org/1999/xlink" x="0px" y="0px"
	 viewBox="0 0 179.9 179.9" style="enable-background:new 0 0 179.9 179.9;" xml:space="preserve">
<style type="text/css">
	.st0{fill:#FFFFFF;}
</style>
<g>
	<g>
		<path class="st0" d="M58.9,138.1c0-3.9-3.5-7.4-7.4-7.4c-4.3,0-7.6,3.5-7.6,7.4c0,4.1,3.3,7.6,7.6,7.6
			C55.4,145.7,58.9,142.2,58.9,138.1z"/>
		<path class="st0" d="M58.7,92.6v-48c0-13.6,6.4-25.3,20.4-33c-29.7,4.1-31.7,21.2-31.7,36.5v47.8c0,8.4-2.5,19.4-7.8,25.8
			c-5.2-6.4-7.6-17.3-7.6-25.8v-5c0-15.5-2.1-32.6-31.9-36.5C14,62,20.4,73.7,20.4,87.5l0.2,5c0,12.6,3.5,28.4,19,33.2
			C56,121,58.7,105.2,58.7,92.6z"/>
		<path class="st0" d="M30.5,130.7c-4.1,0-7.4,3.5-7.4,7.4c0,4.1,3.3,7.6,7.4,7.6s7.6-3.5,7.6-7.6C38.1,134.2,34.6,130.7,30.5,130.7
			z"/>
		<path class="st0" d="M75.8,117.7c0,13.8-6.4,25.5-20.4,33.2c29.7-4.1,31.7-21.2,31.7-36.5V55.7l-11.3,7.4V117.7z"/>
		<polygon class="st0" points="139.5,55.7 128.1,63.2 128.1,99.4 110.8,99.4 110.8,11.5 99.3,18.7 99.3,111.5 110.2,111.5 
			110.8,111.5 139.5,111.5 		"/>
		<path class="st0" d="M133.7,120c-3.9,0-7.4,3.5-7.4,7.4c0,4.1,3.5,7.4,7.4,7.4c4.1,0,7.4-3.3,7.4-7.4
			C141.1,123.5,137.8,120,133.7,120z"/>
		<polygon class="st0" points="151.6,111.5 163.2,111.5 163.2,11.5 151.6,18.7 		"/>
		<g>
			<path class="st0" d="M172.5,0.9c-3.2-1.1-7.1-1.2-11.9-0.3l-2.9,0.5l-2.9,0.6c-1.7,0.3-3.4,0.5-5.1,0.6c-1.6,0.1-3.2,0.2-4.6,0.2
				c-1.4,0-2.7-0.1-3.8-0.3s-2-0.5-2.7-0.9c1.6,2.6,4.1,4.5,7.3,5.6s7.1,1.3,11.7,0.5c1.1-0.2,2.2-0.4,3.4-0.7
				c1.1-0.3,2.3-0.5,3.4-0.7c3.4-0.6,6.6-0.8,9.4-0.7c2.8,0.1,4.9,0.5,6.3,1.3C178.1,3.8,175.7,1.9,172.5,0.9z"/>
		</g>
	</g>
	<g>
		<path class="st0" d="M11.3,5.6c0,3.2-2.5,5.7-5.7,5.7C2.4,11.3,0,8.8,0,5.7C0,2.5,2.4,0,5.7,0S11.3,2.4,11.3,5.6z M10.4,5.6
			c0-2.7-2-4.7-4.7-4.7C2.9,0.9,0.9,3,0.9,5.7s2,4.8,4.7,4.8C8.3,10.4,10.4,8.3,10.4,5.6z M7.3,6.6l1.4,2.2H7.3L6.1,6.9H5.9H4.7v1.9
			H3.3V2.5h2.6c1.7,0,2.7,0.9,2.7,2.2C8.6,5.6,8.1,6.3,7.3,6.6z M5.8,5.8c0.9,0,1.4-0.4,1.4-1.1S6.7,3.6,5.8,3.6H4.6v2.2H5.8z"/>
	</g>
</g>
<g>
	<path class="st0" d="M32.5,175.8h-8.8l-1.7,4h-4.5L26,161h4.3l8.4,18.9h-4.6L32.5,175.8z M31.2,172.5l-3-7.2l-3,7.2H31.2z"/>
	<path class="st0" d="M69.5,174.7c0,3.3-2.6,5.2-7.6,5.2h-9.8V161h9.2c4.7,0,7.2,2,7.2,4.9c0,1.9-1,3.3-2.5,4.2
		C68.1,170.7,69.5,172.3,69.5,174.7z M56.5,164.3v4.5h4.3c2.1,0,3.3-0.8,3.3-2.2c0-1.5-1.2-2.2-3.3-2.2h-4.3V164.3z M65.1,174.2
		c0-1.6-1.2-2.3-3.5-2.3h-5.1v4.7h5.1C63.8,176.6,65.1,175.9,65.1,174.2z"/>
	<path class="st0" d="M96.6,175.8h-8.8l-1.7,4h-4.5l8.4-18.9h4.3l8.4,18.9h-4.6L96.6,175.8z M95.2,172.5l-3-7.2l-3,7.2H95.2z"/>
	<path class="st0" d="M128.2,179.9l-3.6-5.3h-0.2h-3.8v5.3h-4.4V161h8.2c5,0,8.2,2.6,8.2,6.9c0,2.8-1.4,4.9-3.9,6l4.2,6.1h-4.7
		V179.9z M124.1,164.5h-3.6v6.6h3.6c2.7,0,4-1.2,4-3.3S126.7,164.5,124.1,164.5z"/>
	<path class="st0" d="M156.1,173.2v6.7h-4.4v-6.7l-7.3-12.1h4.6l5,8.4l5-8.4h4.3L156.1,173.2z"/>
</g>
</svg>
